<svg width="25" height="28" viewBox="0 0 25 28" fill="none" xmlns="http://www.w3.org/2000/svg">
<path fill-rule="evenodd" clip-rule="evenodd" d="M1.79034 1.82857C2.62083 0.981472 3.75361 0.5 4.94118 0.5H12.2941C13.4817 0.5 14.6145 0.981472 15.445 1.82857C16.2745 2.67466 16.7353 3.816 16.7353 5V6.5C16.7353 7.32843 16.0637 8 15.2353 8C14.4069 8 13.7353 7.32843 13.7353 6.5V5C13.7353 4.5927 13.5764 4.20791 13.3027 3.92879C13.0301 3.65067 12.6666 3.5 12.2941 3.5H4.94118C4.56865 3.5 4.20522 3.65067 3.93256 3.92879C3.65891 4.20791 3.5 4.5927 3.5 5V23C3.5 23.4073 3.65891 23.7921 3.93256 24.0712C4.20523 24.3493 4.56865 24.5 4.94118 24.5H12.2941C12.6666 24.5 13.0301 24.3493 13.3027 24.0712C13.5764 23.7921 13.7353 23.4073 13.7353 23V21.5C13.7353 20.6716 14.4069 20 15.2353 20C16.0637 20 16.7353 20.6716 16.7353 21.5V23C16.7353 24.184 16.2745 25.3253 15.445 26.1714C14.6145 27.0185 13.4817 27.5 12.2941 27.5H4.94118C3.75361 27.5 2.62083 27.0185 1.79034 26.1714C0.960839 25.3253 0.5 24.184 0.5 23V5C0.5 3.81601 0.960838 2.67467 1.79034 1.82857ZM17.5087 8.42889C18.1003 7.84893 19.05 7.85834 19.6299 8.44989L24.0417 12.9499C24.6136 13.5332 24.6136 14.4668 24.0417 15.0501L19.6299 19.5501C19.05 20.1417 18.1003 20.1511 17.5087 19.5711C16.9172 18.9912 16.9078 18.0415 17.4877 17.4499L19.3994 15.5H7.52941C6.70098 15.5 6.02941 14.8284 6.02941 14C6.02941 13.1716 6.70098 12.5 7.52941 12.5H19.3994L17.4877 10.5501C16.9078 9.95855 16.9172 9.00885 17.5087 8.42889Z" fill="#2C2C2C"/>
</svg>
